<?xml version="1.0" encoding="UTF-8" standalone="no"?><svg xmlns:svg="http://www.w3.org/2000/svg" xmlns="http://www.w3.org/2000/svg" xmlns:xlink="http://www.w3.org/1999/xlink" version="1.0" width="64px" height="64px" viewBox="0 0 128 128" xml:space="preserve"><g><path d="M123.95 86.4l-1.38-.6a62.34 62.34 0 0 0 3.86-24.43l1.5-.15a63.87 63.87 0 0 1-3.98 25.18zm-19.26 26.88l-.9-1.22a62.33 62.33 0 0 0 15.5-19.2l1.4.6a63.9 63.9 0 0 1-16.1 19.82zm17.6-71.72a62.1 62.1 0 0 0-5.6-11.1l1.2-.88a63.87 63.87 0 0 1 9.1 23.8l-1.5.17a62.12 62.12 0 0 0-3.3-12zm.2 12.3L106 55.64A43 43 0 0 0 100.7 42l13.5-9.76a59.3 59.3 0 0 1 8.3 21.63zm-19.2-38.43A62.16 62.16 0 0 0 92.9 8.6l.6-1.38a63.9 63.9 0 0 1 19.83 16.05l-1.22.9a62.16 62.16 0 0 0-8.8-8.75zm6.4 10.52l-13.47 9.8a42.98 42.98 0 0 0-11.4-9.2l6.8-15.18a59.3 59.3 0 0 1 18.02 14.58zM73.73 2.27a62.8 62.8 0 0 0-12.44-.72l-.1-1.5a64.56 64.56 0 0 1 25.24 4l-.6 1.38a62.8 62.8 0 0 0-12.06-3.16zM26.62 110.13a59.18 59.18 0 0 1-8.28-8.18l13.4-9.78a42.98 42.98 0 0 0 11.4 9.17l-6.8 15.2a59.2 59.2 0 0 1-9.72-6.4zm15.44-82.95l-9.75-13.5A59.3 59.3 0 0 1 54 5.38l1.7 16.52a42.98 42.98 0 0 0-13.64 5.28zM30.53 11.24l-.88-1.22A63.9 63.9 0 0 1 53.45.88l.17 1.5a62.35 62.35 0 0 0-23.1 8.86zm.26 25.66a42.94 42.94 0 0 0-4.2 6.18l-15.2-6.8a59.3 59.3 0 0 1 14.6-18l9.7 13.4a42.95 42.95 0 0 0-5 5.22zM8.6 35.04l-1.38-.6a63.9 63.9 0 0 1 16.1-19.84l.9 1.23a62.35 62.35 0 0 0-15.58 19.2zm-7.1 31.6l-1.5.14A63.9 63.9 0 0 1 4 41.6l1.37.6A62.35 62.35 0 0 0 1.5 66.63zm4.16 19.7a62.15 62.15 0 0 0 5.6 11.1l-1.2.87A63.9 63.9 0 0 1 .92 74.5l1.5-.16a62.14 62.14 0 0 0 3.27 12zM4.58 66.3A59.3 59.3 0 0 1 8.2 43.4l15.18 6.74a42.98 42.98 0 0 0-2.25 14.45zm.87 7.7l16.52-1.77a42.97 42.97 0 0 0 5.27 13.64l-13.48 9.75A59.3 59.3 0 0 1 5.46 74zm19.28 38.45a62.1 62.1 0 0 0 10.38 6.82l-.6 1.37a63.9 63.9 0 0 1-19.8-16.05l1.2-.9a62.14 62.14 0 0 0 8.9 8.7zm32.44-6.13a42.98 42.98 0 0 0 7.44.53l1.8 16.56a59.27 59.27 0 0 1-22.9-3.6l6.74-15.2a42.95 42.95 0 0 0 7 1.8zM73.3 5.24a59.78 59.78 0 0 1 11.3 2.93l-6.7 15.1a43.42 43.42 0 0 0-14.5-2.25L61.65 4.54a59.78 59.78 0 0 1 11.65.7zM54.24 125.7a62.15 62.15 0 0 0 12.4.72l.15 1.5a63.87 63.87 0 0 1-25.2-4l.6-1.38a62.18 62.18 0 0 0 12 3.16zm31.73-25l9.76 13.48a59.27 59.27 0 0 1-21.63 8.3L72.3 106a43 43 0 0 0 13.64-5.28zm11.53 15.93l.88 1.22a63.9 63.9 0 0 1-23.8 9.14l-.17-1.5a62.36 62.36 0 0 0 23.1-8.9zm4.52-7.03l-9.8-13.4a42.98 42.98 0 0 0 9.18-11.4l15.2 6.8a59.33 59.33 0 0 1-14.58 18zm21.4-47.94a59.27 59.27 0 0 1-3.62 22.9l-15.18-6.74a42.97 42.97 0 0 0 2.25-14.45z" fill="#d1d1d1"/><animateTransform attributeName="transform" type="rotate" from="0 64 64" to="30 64 64" dur="900ms" repeatCount="indefinite"></animateTransform></g></svg>